<svg xmlns="http://www.w3.org/2000/svg" viewBox="0 0 760 420" width="760" height="420" role="img" aria-labelledby="ttl">
<title id="ttl">Mã nguồn mở: sản phẩm đứng trên thư viện có giấy phép khác nhau</title>
<rect x="0" y="0" width="760" height="420" fill="#0b1024"/>
<rect x="10" y="10" width="740" height="400" rx="14" fill="none" stroke="#2b3557"/>
<defs><marker id="arrow" viewBox="0 0 10 10" refX="9" refY="5" markerWidth="6" markerHeight="6" orient="auto"><path d="M0 0 L10 5 L0 10 Z" fill="#9b5cff"/></marker></defs>
<rect x="230" y="48" width="220" height="76" rx="12" fill="#17203e" stroke="#37d9ff" stroke-width="2"/>
<text x="340" y="80" font-family="system-ui, -apple-system, 'Segoe UI', Roboto, sans-serif" font-size="15" font-weight="600" fill="#e7eeff" text-anchor="middle">Sản phẩm của bạn</text>
<text x="340" y="102" font-family="system-ui, -apple-system, 'Segoe UI', Roboto, sans-serif" font-size="13" fill="#aeb8d4" text-anchor="middle">phần bạn kiểm soát</text>
<path d="M24 164H736M24 340H736" stroke="#2b3557" stroke-width="1.2" stroke-dasharray="6 6" fill="none"/>
<text x="28" y="158" font-family="system-ui, -apple-system, 'Segoe UI', Roboto, sans-serif" font-size="13" fill="#aeb8d4">bạn viết</text>
<path d="M340 124V152M113 152H613" stroke="#9b5cff" stroke-width="1.6" fill="none"/>
<path d="M113 152V172M238 152V172M363 152V172M488 152V172M613 152V172" stroke="#9b5cff" stroke-width="1.6" fill="none" marker-end="url(#arrow)"/>
<g fill="#11172d" stroke="#2b3557" stroke-width="1.4">
<rect x="56" y="176" width="114" height="82" rx="10"/>
<rect x="181" y="176" width="114" height="82" rx="10"/>
<rect x="306" y="176" width="114" height="82" rx="10"/>
<rect x="431" y="176" width="114" height="82" rx="10"/>
<rect x="556" y="176" width="114" height="82" rx="10"/>
</g>
<text x="113" y="212" font-family="system-ui, -apple-system, 'Segoe UI', Roboto, sans-serif" font-size="13" fill="#e7eeff" text-anchor="middle">Thư viện</text>
<text x="113" y="232" font-family="system-ui, -apple-system, 'Segoe UI', Roboto, sans-serif" font-size="13" fill="#e7eeff" text-anchor="middle">dựng video</text>
<text x="238" y="212" font-family="system-ui, -apple-system, 'Segoe UI', Roboto, sans-serif" font-size="13" fill="#e7eeff" text-anchor="middle">Engine</text>
<text x="238" y="232" font-family="system-ui, -apple-system, 'Segoe UI', Roboto, sans-serif" font-size="13" fill="#e7eeff" text-anchor="middle">giọng đọc</text>
<text x="363" y="212" font-family="system-ui, -apple-system, 'Segoe UI', Roboto, sans-serif" font-size="13" fill="#e7eeff" text-anchor="middle">Mô hình</text>
<text x="363" y="232" font-family="system-ui, -apple-system, 'Segoe UI', Roboto, sans-serif" font-size="13" fill="#e7eeff" text-anchor="middle">ngôn ngữ</text>
<text x="488" y="212" font-family="system-ui, -apple-system, 'Segoe UI', Roboto, sans-serif" font-size="13" fill="#e7eeff" text-anchor="middle">Thư viện</text>
<text x="488" y="232" font-family="system-ui, -apple-system, 'Segoe UI', Roboto, sans-serif" font-size="13" fill="#e7eeff" text-anchor="middle">giao diện</text>
<text x="613" y="212" font-family="system-ui, -apple-system, 'Segoe UI', Roboto, sans-serif" font-size="13" fill="#e7eeff" text-anchor="middle">Công cụ</text>
<text x="613" y="232" font-family="system-ui, -apple-system, 'Segoe UI', Roboto, sans-serif" font-size="13" fill="#e7eeff" text-anchor="middle">dòng lệnh</text>
<rect x="85" y="268" width="56" height="26" rx="13" fill="#151d38" stroke="#55e6a5" stroke-width="1.4"/>
<text x="113" y="286" font-family="system-ui, -apple-system, 'Segoe UI', Roboto, sans-serif" font-size="13" fill="#55e6a5" text-anchor="middle">MIT</text>
<rect x="192" y="268" width="92" height="26" rx="13" fill="#151d38" stroke="#55e6a5" stroke-width="1.4"/>
<text x="238" y="286" font-family="system-ui, -apple-system, 'Segoe UI', Roboto, sans-serif" font-size="13" fill="#55e6a5" text-anchor="middle">Apache 2.0</text>
<rect x="334" y="268" width="58" height="26" rx="13" fill="#151d38" stroke="#55e6a5" stroke-width="1.4"/>
<text x="363" y="286" font-family="system-ui, -apple-system, 'Segoe UI', Roboto, sans-serif" font-size="13" fill="#55e6a5" text-anchor="middle">BSD</text>
<rect x="460" y="268" width="56" height="26" rx="13" fill="#151d38" stroke="#55e6a5" stroke-width="1.4"/>
<text x="488" y="286" font-family="system-ui, -apple-system, 'Segoe UI', Roboto, sans-serif" font-size="13" fill="#55e6a5" text-anchor="middle">MIT</text>
<rect x="583" y="268" width="60" height="26" rx="13" fill="#151d38" stroke="#ef4fc4" stroke-width="1.4"/>
<text x="613" y="286" font-family="system-ui, -apple-system, 'Segoe UI', Roboto, sans-serif" font-size="13" fill="#ef4fc4" text-anchor="middle">GPL</text>
<text x="613" y="314" font-family="system-ui, -apple-system, 'Segoe UI', Roboto, sans-serif" font-size="13" fill="#ff7a8a" text-anchor="middle">đổi nghĩa vụ của bạn</text>
<line x1="24" y1="340" x2="736" y2="340" stroke="#2b3557" stroke-width="1.2" stroke-dasharray="6 6"/>
<text x="28" y="334" font-family="system-ui, -apple-system, 'Segoe UI', Roboto, sans-serif" font-size="13" fill="#aeb8d4">bạn dùng</text>
<path d="M670 217 H692 Q704 217 704 205 V98 Q704 86 692 86 H454" fill="none" stroke="#9b5cff" stroke-width="1.6" marker-end="url(#arrow)"/>
<text x="720" y="150" transform="rotate(-90 720 150)" font-family="system-ui, -apple-system, 'Segoe UI', Roboto, sans-serif" font-size="13" fill="#9b5cff" text-anchor="middle">trả lại: báo lỗi · bản vá</text>
<text x="738" y="150" transform="rotate(-90 738 150)" font-family="system-ui, -apple-system, 'Segoe UI', Roboto, sans-serif" font-size="13" fill="#9b5cff" text-anchor="middle">tài liệu · tài trợ</text>
<text x="380" y="385" font-family="system-ui, -apple-system, 'Segoe UI', Roboto, sans-serif" font-size="13" fill="#aeb8d4" text-anchor="middle">ràng buộc nằm ở giấy phép</text>
</svg>
